# xmcd CD database file
#
# Track frame offsets:
#	150
#	22987
#	44217
#	61010
#	83077
#	98492
#	113500
#	137450
#	153305
#	173212
#
# Disc length: 2512 seconds
#
# Revision: 0
# Processed by: cddbd v1.5.2PL0 Copyright (c) Steve Scherf et al.
# Submitted via: CDex 1.51
#
DISCID=6e09ce0a
DTITLE=Dave McKenna - Cookin' at Michael's Pub
DYEAR=1973
DGENRE=Jazz
TTITLE0=Cookin' at Michael's Pub
TTITLE1=Dream Dancing
TTITLE2=Dansero
TTITLE3=Change Partners
TTITLE4=Dinah
TTITLE5=I Won't Dance
TTITLE6=Cheek to Cheek
TTITLE7=I Could Have Danced All Night
TTITLE8=Fine and Dandy
TTITLE9=The Last Dance
EXTD=YEAR: 1973
EXTT0=
EXTT1=
EXTT2=
EXTT3=
EXTT4=
EXTT5=
EXTT6=
EXTT7=
EXTT8=
EXTT9=
PLAYORDER=
